<?xml version="1.0" standalone="no"?>
<!DOCTYPE svg PUBLIC "-//W3C//DTD SVG 20010904//EN"
 "http://www.w3.org/TR/2001/REC-SVG-20010904/DTD/svg10.dtd">
<svg version="1.0" xmlns="http://www.w3.org/2000/svg"
 width="479.000000pt" height="512.000000pt" viewBox="0 0 479.000000 512.000000"
 preserveAspectRatio="xMidYMid meet">

<g transform="translate(0.000000,512.000000) scale(0.100000,-0.100000)"
fill="#000000" stroke="none">
<path d="M0 2609 c0 -1380 4 -2508 9 -2505 4 3 11 67 14 143 8 166 40 374 67
421 5 9 21 55 35 102 15 47 41 112 59 145 18 33 45 81 59 107 48 87 157 208
247 276 19 14 46 36 60 48 22 19 81 53 212 121 24 12 72 32 108 44 36 12 84
30 107 40 44 20 299 74 398 84 33 3 69 10 80 15 34 15 237 29 603 42 275 9
428 9 700 0 354 -13 569 -28 587 -42 6 -4 41 -11 80 -15 96 -10 337 -60 377
-79 18 -8 74 -29 123 -47 77 -26 223 -100 290 -146 217 -149 371 -347 444
-573 17 -52 35 -102 40 -111 28 -50 71 -338 71 -476 0 -49 4 -83 10 -83 7 0
10 840 10 2500 l0 2500 -2395 0 -2395 0 0 -2511z m2570 2476 c110 -15 221 -41
230 -53 3 -5 40 -21 83 -36 42 -15 92 -39 110 -52 17 -13 50 -33 71 -45 54
-29 217 -189 263 -257 21 -32 42 -59 46 -60 4 -2 24 -38 43 -80 20 -43 47 -99
60 -127 33 -67 70 -219 85 -346 25 -216 -16 -591 -77 -709 -7 -14 -28 -59 -47
-100 -18 -41 -57 -110 -86 -153 -62 -92 -211 -244 -275 -282 -25 -15 -46 -30
-46 -34 0 -19 -230 -119 -323 -141 -224 -53 -585 -39 -732 30 -229 107 -303
155 -416 271 -90 93 -140 166 -208 305 -101 207 -126 332 -126 624 0 155 5
227 18 295 19 95 49 201 66 232 5 10 30 61 55 113 26 52 64 120 86 151 54 78
187 210 257 256 32 21 63 43 70 49 7 7 47 26 90 43 43 18 96 40 118 51 49 23
113 38 230 55 122 17 229 17 355 0z"/>
<path d="M0 10 c0 -7 805 -10 2395 -10 1590 0 2395 3 2395 10 0 7 -805 10
-2395 10 -1590 0 -2395 -3 -2395 -10z"/>
</g>
</svg>
